<svg width="23" height="24" viewBox="0 0 23 24" fill="none" xmlns="http://www.w3.org/2000/svg">
<path d="M8.42071 13.6196C11.3867 13.9567 12.7298 16.3476 14.9405 18.1374C15.1203 14.0803 15.4063 10.4506 13.9724 7.1622C12.8799 4.64613 11.1472 3.04743 8.43152 3.00022C6.61292 2.96704 4.775 3.06746 2.94317 3.18929C2.09745 3.24874 1.20938 3.62943 0.288795 2.61892C0.940768 2.1595 1.41821 1.64995 1.94393 1.48517C4.98396 0.523957 8.01095 0.269536 10.9661 0.917686C13.0467 1.3764 14.5342 2.74335 15.6488 4.62505C17.0102 6.919 17.603 9.54376 17.6798 12.3813C17.7231 14.0254 17.7082 15.6797 17.7189 17.6125C19.3422 16.4205 19.8648 13.812 22.1834 13.8854C22.1514 14.3913 22.2643 14.8962 22.0755 15.199C20.5154 17.7158 18.9226 20.2112 17.2925 22.6831C16.6811 23.6077 15.8272 23.7191 15.2235 23.0047C12.9685 20.3326 10.7797 17.5983 8.58416 14.8672C8.4614 14.7171 8.51729 14.3898 8.42511 13.6217L8.42071 13.6196Z" fill="black"/>
</svg>
