<svg width="64" height="64" viewBox="0 0 64 64" fill="none" xmlns="http://www.w3.org/2000/svg">
<circle cx="32" cy="32" r="29.5" stroke="white" stroke-width="5"/>
<path d="M36.2451 20.5001C35.2535 20.2823 34.221 20.7223 33.9351 21.4779L26.4685 41.389C26.1826 42.1445 26.7601 42.9312 27.7518 43.149C28.7435 43.3667 29.776 42.9267 30.0618 42.1712L37.5285 22.2601C37.8143 21.5045 37.2368 20.7179 36.2451 20.5001ZM40.9468 25.8379C40.2176 26.3934 40.2176 27.2956 40.9468 27.8512L46.156 31.8245L40.941 35.7979C40.2118 36.3534 40.2118 37.2556 40.941 37.8112C41.6701 38.3667 42.8543 38.3667 43.5835 37.8112L50.1168 32.8334C50.846 32.2779 50.846 31.3756 50.1168 30.8201L43.5835 25.8423C42.8543 25.2867 41.6701 25.2867 40.941 25.8423L40.9468 25.8379ZM23.056 25.8379C22.3268 25.2823 21.1426 25.2823 20.4135 25.8379L13.8801 30.8156C13.151 31.3712 13.151 32.2734 13.8801 32.829L20.4135 37.8067C21.1426 38.3623 22.3268 38.3623 23.056 37.8067C23.7851 37.2512 23.7851 36.349 23.056 35.7934L17.841 31.8245L23.056 27.8512C23.7851 27.2956 23.7851 26.3934 23.056 25.8379Z" fill="white"/>
</svg>